<?xml version="1.0" encoding="UTF-8"?>
<svg version="1.1" xmlns="http://www.w3.org/2000/svg" width="180" height="193">
<path d="M0 0 C59.4 0 118.8 0 180 0 C180 63.69 180 127.38 180 193 C120.6 193 61.2 193 0 193 C0 129.31 0 65.62 0 0 Z " fill="#f8f9fa" transform="translate(0,0)"/>
<path d="M0 0 C2.93350813 2.10268939 5.47467035 4.42641564 8 7 C8.92619141 7.928125 8.92619141 7.928125 9.87109375 8.875 C21.84144185 21.6433713 21.63106263 35.10751303 21.17480469 51.74511719 C20.34685336 67.1616635 12.70414978 82.01416207 2 93 C-4.39299468 98.53867557 -10.97491465 102.35398487 -19 105 C-18.79503906 105.61488281 -18.59007812 106.22976562 -18.37890625 106.86328125 C-15.6186556 115.14403321 -13.78530516 122.13468687 -15 131 C-17.51220881 135.64482562 -21.04819864 139.08027991 -26 141 C-31.28546216 141.85294495 -36.63616149 142.33658074 -41.41796875 139.6328125 C-49.49563136 132.10199359 -53.96082378 120.42258668 -57 110 C-57 109.01 -57 108.02 -57 107 C-57.68707031 106.93941406 -58.37414062 106.87882812 -59.08203125 106.81640625 C-59.98308594 106.73261719 -60.88414063 106.64882812 -61.8125 106.5625 C-62.70582031 106.48128906 -63.59914063 106.40007812 -64.51953125 106.31640625 C-67 106 -67 106 -70 105 C-70.29132813 105.84820312 -70.58265625 106.69640625 -70.8828125 107.5703125 C-80.25586179 134.39256046 -80.25586179 134.39256046 -87.34765625 139.78515625 C-92.3423995 142.07288107 -97.63309953 141.60833884 -103 141 C-108.03359633 138.6156649 -111.49996787 135.00006427 -114 130 C-115.09601716 120.56250936 -112.74152937 113.31506858 -109 104.75 C-108.28457031 103.04263672 -108.28457031 103.04263672 -107.5546875 101.30078125 C-106.38849621 98.52524599 -105.20365512 95.75944338 -104 93 C-104.94149902 92.84547363 -105.88299805 92.69094727 -106.85302734 92.53173828 C-120.53860825 90.21931041 -135.35012744 82.81494734 -143.84765625 71.55078125 C-145.38362755 69.08643418 -146.72218059 66.60624553 -148 64 C-148.33902344 63.38898438 -148.67804688 62.77796875 -149.02734375 62.1484375 C-152.49400029 54.8956169 -152.40825771 44.52033339 -150.05078125 36.953125 C-148.86035059 34.47462584 -147.55970572 32.26157329 -146 30 C-145.278125 28.9275 -144.55625 27.855 -143.8125 26.75 C-135.38284752 18.50767313 -125.49082627 15.49073089 -113.98266602 14.39111328 C-113.28713623 14.3239209 -112.59160645 14.25672852 -111.875 14.1875 C-111.17882568 14.12030762 -110.48265137 14.05311523 -109.76538086 13.98388672 C-105.46987349 13.46938732 -102.79359336 12.58398273 -99.4375 9.875 C-94.49618888 5.99797128 -89.6262588 6.28088337 -83.53125 6.54296875 C-77.25335223 7.35548428 -73.43297362 9.65639559 -68.8125 13.8125 C-66.27623633 16.2809389 -66.27623633 16.2809389 -63.59765625 15.859375 C-57.27135186 13.76646227 -52.51542846 7.71709727 -48.3125 2.75 C-35.63120704 -12.15198021 -15.38256231 -8.5008897 0 0 Z " fill="#BFD4F9" transform="translate(155,47)"/>
<path d="M0 0 C6.64818103 4.67599335 10.69269967 10.6255431 12.59765625 18.45703125 C13.98066483 26.58075394 11.48381891 32.2598077 7 39 C4.84320611 41.58154542 2.51584839 43.7775767 0 46 C-0.78632812 46.78761719 -1.57265625 47.57523438 -2.3828125 48.38671875 C-8.66378095 54.65831262 -15.35819593 60.54950735 -22.09765625 66.32421875 C-23.45259821 67.51779186 -24.76961351 68.75500983 -26.05859375 70.01953125 C-26.74050781 70.67308594 -27.42242187 71.32664062 -28.125 72 C-28.72570312 72.598125 -29.32640625 73.19625 -29.9453125 73.8125 C-32 75 -32 75 -34.8125 75.0703125 C-39.17696194 73.60479464 -41.65607311 71.08330775 -44.875 67.875 C-46.1151547 66.68023065 -47.35603453 65.48621348 -48.59765625 64.29296875 C-49.48155029 63.43324463 -49.48155029 63.43324463 -50.38330078 62.55615234 C-52.30769738 60.70382617 -54.2906884 58.93268546 -56.3125 57.1875 C-56.90546875 56.66800781 -57.4984375 56.14851563 -58.109375 55.61328125 C-59.55741846 54.37765739 -61.03120903 53.17215051 -62.515625 51.98046875 C-63.35609375 51.28566406 -64.1965625 50.59085938 -65.0625 49.875 C-65.83722656 49.25367188 -66.61195312 48.63234375 -67.41015625 47.9921875 C-69 46 -69 46 -69.10546875 43.60546875 C-67.5891178 40.03159566 -65.1280465 37.91955703 -62.25 35.4375 C-61.0545326 34.36996511 -59.85922436 33.30225196 -58.6640625 32.234375 C-58.05208008 31.69490234 -57.44009766 31.15542969 -56.80957031 30.59960938 C-54.05133902 28.16141031 -51.3345276 25.6795756 -48.625 23.1875 C-48.10212402 22.70949951 -47.57924805 22.23149902 -47.04052734 21.73901367 C-43.93085903 18.87089576 -40.91749079 15.92850883 -37.953125 12.91015625 C-36.93484619 11.87435425 -36.93484619 11.87435425 -35.89599609 10.81762695 C-34.56884118 9.45985032 -33.24859481 8.09527959 -31.93603516 6.72338867 C-31.33581543 6.10826416 -30.7355957 5.49313965 -30.1171875 4.859375 C-29.58722168 4.30733398 -29.05725586 3.75529297 -28.51123047 3.18652344 C-27 2 -27 2 -24 2 C-24.33 5.3 -24.66 8.6 -25 12 C-19.52136557 10.63034139 -16.80045112 9.03862923 -12.9375 4.9375 C-8.89884991 0.65079463 -5.97407053 -0.60867888 0 0 Z " fill="#1703A6" transform="translate(125,56)"/>
<path d="M0 0 C8.5968016 -0.73164269 15.54688843 2.98684449 22.2109375 8.23046875 C29.37799531 15.31928357 31.45362798 24.97558054 31.5625 34.6875 C31.63554424 49.00794879 27.31719031 62.03923991 18 73 C15.76953125 75.2421875 15.76953125 75.2421875 13.8125 76.875 C13.15894531 77.42929688 12.50539062 77.98359375 11.83203125 78.5546875 C8.51838693 81.16886319 7.37169131 82 3 82 C2.7421875 80.85273438 2.484375 79.70546875 2.21875 78.5234375 C1.08726242 74.00346334 -0.5972848 69.86829372 -2.5 65.625 C-2.80808594 64.91472656 -3.11617188 64.20445313 -3.43359375 63.47265625 C-4.71304691 60.5787858 -5.74315682 58.25684318 -8 56 C-7.84994922 51.79857823 -4.80580513 48.85418108 -2 46 C-0.69181782 44.95291591 0.62097468 43.91157454 1.9375 42.875 C7.57268947 38.01116726 11.55674632 31.56612015 12.28515625 24.0625 C11.75392017 14.73347611 8.14700323 8.57885382 1.390625 2.34765625 C0.93171875 1.90292969 0.4728125 1.45820312 0 1 C0 0.67 0 0.34 0 0 Z " fill="#FBFBFD" transform="translate(125,56)"/>
<path d="M0 0 C3.43496437 1.95321503 5.60727748 3.82487392 8.1875 6.8125 C8.65542969 7.28171875 9.12335938 7.7509375 9.60546875 8.234375 C13.7773751 12.95552393 13.81233347 17.52550944 13.53125 23.66015625 C12.67794356 31.48536416 10.29462845 35.33645909 4.22265625 40.3671875 C-2.08717954 44.84826091 -8.24207016 44.46600123 -15.8125 43.8125 C-21.31464358 42.5234758 -24.07628673 39.83508223 -27.25 35.25 C-30.34913122 30.24241195 -31.01424647 26.39325348 -31.125 20.5 C-31.16238281 19.20449219 -31.19976562 17.90898437 -31.23828125 16.57421875 C-30.59830863 10.92014871 -28.02593988 7.97200922 -24 4.125 C-16.28668379 -1.47093529 -9.06584219 -2.82378691 0 0 Z " fill="#1805A6" transform="translate(99.8125,7.1875)"/>
<path d="M0 0 C3.62835556 3.09922038 7.24080927 6.21067115 10.8125 9.375 C12.20692982 10.58495273 13.602873 11.7931627 15 13 C15.84304687 13.74507812 16.68609375 14.49015625 17.5546875 15.2578125 C18.42351562 15.99773437 19.29234375 16.73765625 20.1875 17.5 C20.98542969 18.1909375 21.78335938 18.881875 22.60546875 19.59375 C24.88813231 21.19941426 24.88813231 21.19941426 27.44140625 21.03515625 C30.85082883 19.65577154 33.16330774 17.46986415 35.75 14.9375 C36.80426666 13.93965934 37.85895841 12.94226763 38.9140625 11.9453125 C39.43258789 11.4493457 39.95111328 10.95337891 40.48535156 10.44238281 C42.66757852 8.36427243 44.88845393 6.33190567 47.125 4.3125 C48.18074219 3.34763672 48.18074219 3.34763672 49.2578125 2.36328125 C51 1 51 1 53 1 C59.77043916 10.09173259 63.87031572 19.63754473 63 31 C55.19465733 35.83931246 48.67831759 36.1464466 39.625 36.0625 C38.23474609 36.05573242 38.23474609 36.05573242 36.81640625 36.04882812 C34.54420291 36.03711574 32.27213612 36.02071372 30 36 C29.01 33.69 28.02 31.38 27 29 C26.690625 29.61875 26.38125 30.2375 26.0625 30.875 C25.375 32.25 24.6875 33.625 24 35 C16.84179707 35.32936517 10.967626 34.23158955 4.125 32.1875 C3.18914062 31.92646484 2.25328125 31.66542969 1.2890625 31.39648438 C-6.2112659 29.21427676 -6.2112659 29.21427676 -9 26 C-6.14674729 17.28172782 -3.06687455 8.64481468 0 0 Z " fill="#5487E5" transform="translate(64,109)"/>
<path d="M0 0 C0.14695312 1.19496094 0.14695312 1.19496094 0.296875 2.4140625 C1.82438044 13.2382821 5.69617666 18.23392173 14 25 C14.69609375 25.5053125 15.3921875 26.010625 16.109375 26.53125 C16.75390625 27.0159375 17.3984375 27.500625 18.0625 28 C18.65160156 28.4125 19.24070313 28.825 19.84765625 29.25 C21 31 21 31 20.890625 34.1015625 C19.8398095 38.70118475 18.38628625 42.98023641 16.6875 47.375 C16.39166016 48.19355469 16.09582031 49.01210937 15.79101562 49.85546875 C15.34338867 51.02142578 15.34338867 51.02142578 14.88671875 52.2109375 C14.62076904 52.91524902 14.35481934 53.61956055 14.08081055 54.34521484 C13 56 13 56 11.04858398 56.79296875 C5.20811976 57.38320992 -1.29475753 52.2686811 -5.76171875 48.9453125 C-13.34540247 42.41846678 -21.29358822 34.02304732 -22.3359375 23.66015625 C-22.44004967 14.07142529 -22.44004967 14.07142529 -20.5625 9.5 C-14.32936803 3.41889564 -8.72114194 -0.16150263 0 0 Z " fill="#FBFDFD" transform="translate(43,77)"/>
<path d="M0 0 C8.43061457 0.7124463 26.82721522 3.82721522 33 10 C32.65931585 16.88498904 30.45258788 22.42734104 27.6875 28.6875 C27.29626953 29.61111328 26.90503906 30.53472656 26.50195312 31.48632812 C23.60668531 38.15552713 20.91541247 43.83255776 14 47 C8.17899782 47.8086749 2.78339586 47.84476646 -2.5625 45.3125 C-7.45515435 40.670751 -10.1435136 37.40593761 -10.33984375 30.63671875 C-10.28047652 23.66575578 -8.27979948 18.15836329 -5.5625 11.8125 C-5.14162109 10.77802734 -4.72074219 9.74355469 -4.28710938 8.67773438 C-1.22445243 1.22445243 -1.22445243 1.22445243 0 0 Z " fill="#5589E6" transform="translate(51,141)"/>
<path d="M0 0 C0.64834654 1.269553 1.29357815 2.54069706 1.9375 3.8125 C2.47697266 4.87404297 2.47697266 4.87404297 3.02734375 5.95703125 C5.90532681 12.0019515 5.89702071 18.45319559 5 25 C2.48779119 29.64482562 -1.04819864 33.08027991 -6 35 C-11.28546216 35.85294495 -16.63616149 36.33658074 -21.41796875 33.6328125 C-29.49563136 26.10199359 -33.96082378 14.42258668 -37 4 C-37 3.01 -37 2.02 -37 1 C-33.01650249 0.85575934 -29.03294178 0.71342 -25.04931641 0.57275391 C-23.03674886 0.50130464 -21.02423313 0.42840022 -19.01171875 0.35546875 C-12.67059171 0.13241403 -6.34513951 -0.06474632 0 0 Z " fill="#5589E6" transform="translate(135,153)"/>
<path d="M0 0 C4.36197589 2.03838489 7.88162414 5.09170055 11.46875 8.26171875 C12.45875 8.92171875 13.44875 9.58171875 14.46875 10.26171875 C11.806408 12.9535315 9.13808333 15.63934022 6.46875 18.32421875 C5.72496094 19.07638672 4.98117188 19.82855469 4.21484375 20.60351562 C-0.53320739 25.37221047 -5.41905892 29.88784763 -10.53125 34.26171875 C-12.32737889 35.83998834 -14.11979553 37.42250689 -15.90625 39.01171875 C-16.73898438 39.7490625 -17.57171875 40.48640625 -18.4296875 41.24609375 C-20.6957355 43.27386579 -20.6957355 43.27386579 -22.53125 46.26171875 C-23.80949811 45.20815083 -25.07852493 44.14339092 -26.34375 43.07421875 C-27.05144531 42.48253906 -27.75914063 41.89085937 -28.48828125 41.28125 C-31.78825585 38.01913362 -33.41224697 35.6151799 -33.82421875 30.9296875 C-33.78941406 29.78113281 -33.75460938 28.63257812 -33.71875 27.44921875 C-33.69167969 26.28777344 -33.66460937 25.12632813 -33.63671875 23.9296875 C-33.60191406 23.04925781 -33.56710938 22.16882813 -33.53125 21.26171875 C-30.4479366 21.23260554 -27.36465875 21.21488193 -24.28125 21.19921875 C-23.40855469 21.19083984 -22.53585938 21.18246094 -21.63671875 21.17382812 C-20.79238281 21.17060547 -19.94804688 21.16738281 -19.078125 21.1640625 C-18.30307617 21.15882568 -17.52802734 21.15358887 -16.72949219 21.14819336 C-14.53841402 21.26134877 -12.63487139 21.65619427 -10.53125 22.26171875 C-11.19125 20.94171875 -11.85125 19.62171875 -12.53125 18.26171875 C-11.21125 17.60171875 -9.89125 16.94171875 -8.53125 16.26171875 C-14.72390192 12.99086085 -20.8125595 10.25785143 -27.53125 8.26171875 C-26.15659279 4.13774711 -24.06072855 2.81493219 -20.46484375 0.5078125 C-14.10731695 -2.19265494 -6.58086555 -1.91941912 0 0 Z " fill="#5587E5" transform="translate(77.53125,54.73828125)"/>
<path d="M0 0 C3.88694884 1.46175854 5.00815228 3.30126163 6.75 7 C7.17796875 7.886875 7.6059375 8.77375 8.046875 9.6875 C9 12 9 12 9 14 C9.66 14 10.32 14 11 14 C11.33 13.34 11.66 12.68 12 12 C13.1577506 15.47325181 13.06866652 18.36067448 13 22 C12.34 22 11.68 22 11 22 C11.01160156 22.60328125 11.02320313 23.2065625 11.03515625 23.828125 C11.04869141 25.02695313 11.04869141 25.02695313 11.0625 26.25 C11.07410156 27.03890625 11.08570313 27.8278125 11.09765625 28.640625 C11.00385306 30.90691002 10.63241063 32.8288895 10 35 C9.34 35 8.68 35 8 35 C7.91363281 33.92363281 7.82726562 32.84726563 7.73828125 31.73828125 C6.94158602 23.08503719 5.61827855 15.74573009 2.12109375 7.734375 C1.05747022 5.14017126 0.4482161 2.75980248 0 0 Z " fill="#D0DFF8" transform="translate(163,60)"/>
<path d="M0 0 C0.66 0.33 1.32 0.66 2 1 C2.40729228 3.32156597 2.74438677 5.6568787 3 8 C1.35 8 -0.3 8 -2 8 C-1.125 1.125 -1.125 1.125 0 0 Z " fill="#E3ECFA" transform="translate(90,137)"/>
</svg>
